<!-- Generator: Adobe Illustrator 24.0.2, SVG Export Plug-In  -->
<svg version="1.1" xmlns="http://www.w3.org/2000/svg" xmlns:xlink="http://www.w3.org/1999/xlink" x="0px" y="0px" width="349.5px"
	 height="229.8px" viewBox="0 0 349.5 229.8" style="enable-background:new 0 0 349.5 229.8;" xml:space="preserve">
<style type="text/css">
	.st0{enable-background:new    ;}
	.st1{fill:#FFFFFF;}
	.st2{opacity:0.51;enable-background:new    ;}
	.st3{fill:none;}
</style>
<defs>
</defs>
<g class="st0">
	<path class="st1" d="M2.6,11.5c0.5,0.7,1.1,1,1.9,1c1.4,0,2.3-0.8,2.8-3.3L9,0.3h2.9l-1.7,8.9c-0.8,4.2-2.7,5.8-6,5.8
		c-2.1,0-3.5-0.8-4.2-2.2L2.6,11.5z"/>
	<path class="st1" d="M20.1,13.3c-1,1.3-2.4,1.7-4.2,1.7c-3,0-4.3-2-3.8-4.7l0.3-1.4c0.6-3.2,2.2-4.7,5.2-4.7c2.9,0,3.9,2,3.4,4.9
		l-0.2,1.2h-6c-0.3,1.4,0,2.5,1.5,2.5c1.1,0,1.6-0.3,2.1-0.9L20.1,13.3z M15.2,8.3h3.3c0.2-1.4-0.2-1.9-1.2-1.9
		C16.2,6.4,15.5,7.1,15.2,8.3z"/>
	<path class="st1" d="M23.9,4.3h2.6l-0.1,0.7c0.5-0.5,1.4-0.9,2.6-0.9c2.1,0,3.6,1.1,3,4.1l-1.3,6.6h-2.7l1.2-6.1
		c0.3-1.7-0.1-2.3-1.3-2.3c-1.2,0-2,0.9-2.3,2.3l-1.2,6.1h-2.7L23.9,4.3z"/>
	<path class="st1" d="M34.9,4.3h2.6l-0.1,0.7c0.5-0.5,1.4-0.9,2.6-0.9c2.1,0,3.6,1.1,3,4.1l-1.3,6.6h-2.7l1.2-6.1
		c0.3-1.7-0.1-2.3-1.3-2.3c-1.2,0-2,0.9-2.3,2.3l-1.2,6.1h-2.7L34.9,4.3z"/>
	<path class="st1" d="M47.4,4.3l1,6.8l3.4-6.8h2.8l-5.7,11c-1.5,2.8-2.6,3.5-5.6,3.5l0.5-2.4c1.4,0,2-0.4,2.6-1.5L44.7,4.3H47.4z"/>
	<path class="st1" d="M58.6,3.5l-3.3,2.4L56.5,0h2.8L58.6,3.5z"/>
	<path class="st1" d="M66.1,7.3c-0.4-0.5-0.8-0.8-1.9-0.8c-0.8,0-1.5,0.3-1.5,1c0,0.5,0.5,0.8,1.6,0.9c2.1,0.3,3.2,1.3,3.2,2.9
		c0,2.2-1.5,3.8-4.8,3.8c-2,0-3.2-0.6-3.9-1.8l2.2-1.4c0.3,0.6,0.8,0.9,2.1,0.9c1,0,1.7-0.4,1.7-1c0-0.5-0.5-0.8-1.6-1
		C61.4,10.4,60,9.5,60,7.8c0-2.2,1.5-3.7,4.6-3.7c1.9,0,3.1,0.5,3.7,1.8L66.1,7.3z"/>
	<path class="st1" d="M82.2,8.2l5.6-7.9h3l-2.8,14.5h-2.8l1.7-9l-4.4,6.4h-1.8l-1.9-6.3l-1.7,8.9h-2.8l2.8-14.5h2.6L82.2,8.2z"/>
	<path class="st1" d="M92.8,4.3h2.7l-2,10.5h-2.7L92.8,4.3z M93.4,0.3h2.9l-0.5,2.6h-2.9L93.4,0.3z"/>
	<path class="st1" d="M97.9,4.3h2.6l-0.1,0.7c0.5-0.5,1.4-0.9,2.6-0.9c2.1,0,3.6,1.1,3,4.1l-1.3,6.6h-2.7l1.2-6.1
		c0.3-1.7-0.1-2.3-1.3-2.3c-1.2,0-2,0.9-2.3,2.3l-1.2,6.1h-2.7L97.9,4.3z"/>
	<path class="st1" d="M115.8,0.3h2.7l-2.8,14.5H113l0.1-0.5c-0.6,0.5-1.4,0.7-2.4,0.7c-2.5,0-3.8-2-3.2-4.7l0.3-1.4
		c0.6-3.1,2.4-4.7,4.9-4.7c1.1,0,1.8,0.3,2.3,0.8L115.8,0.3z M113.9,10.1l0.3-1.3c0.3-1.5-0.1-2.4-1.4-2.4c-1.3,0-2,0.9-2.4,2.6
		l-0.2,1.1c-0.3,1.5-0.1,2.6,1.4,2.6C113,12.7,113.5,11.6,113.9,10.1z"/>
	<path class="st1" d="M125,7.3c-0.4-0.5-0.8-0.8-1.9-0.8c-0.8,0-1.5,0.3-1.5,1c0,0.5,0.5,0.8,1.6,0.9c2.1,0.3,3.2,1.3,3.2,2.9
		c0,2.2-1.5,3.8-4.8,3.8c-2,0-3.2-0.6-3.9-1.8l2.2-1.4c0.3,0.6,0.8,0.9,2.1,0.9c1,0,1.7-0.4,1.7-1c0-0.5-0.5-0.8-1.6-1
		c-1.8-0.3-3.2-1.2-3.2-2.9c0-2.2,1.5-3.7,4.6-3.7c1.9,0,3.1,0.5,3.7,1.8L125,7.3z"/>
	<path class="st1" d="M136,13.3c-1,1.3-2.4,1.7-4.2,1.7c-3,0-4.3-2-3.8-4.7l0.3-1.4c0.6-3.2,2.2-4.7,5.2-4.7c2.9,0,3.9,2,3.4,4.9
		l-0.2,1.2h-6c-0.3,1.4,0,2.5,1.5,2.5c1.1,0,1.6-0.3,2.1-0.9L136,13.3z M131.1,8.3h3.3c0.2-1.4-0.2-1.9-1.2-1.9
		C132.1,6.4,131.4,7.1,131.1,8.3z"/>
	<path class="st1" d="M139,4.3h1.3l0.4-2.3h2.7L143,4.3h2.1l-0.4,2.3h-2.1l-0.9,4.4c-0.2,1-0.1,1.5,0.9,1.5h0.9l-0.5,2.4h-1.1
		c-2.2,0-3.4-0.7-2.9-3.4l0.9-4.8h-1.3L139,4.3z"/>
	<path class="st1" d="M147.7,14.8h-2.9l0.5-2.9h2.9L147.7,14.8z M149.2,7.2h-2.9l0.5-2.9h2.9L149.2,7.2z"/>
</g>
<g id="Gruppe_79_1_" transform="translate(-1393 -578)">
	<g id="Linie_1_1_" class="st2">
		<path class="st1" d="M1741,631.8h-255.7c-0.8,0-1.5-0.7-1.5-1.5s0.7-1.5,1.5-1.5H1741c0.8,0,1.5,0.7,1.5,1.5
			S1741.8,631.8,1741,631.8z"/>
	</g>
	<g id="Ellipse_7_1_" transform="translate(1639.179 630)">
		<g>
			<ellipse class="st1" cx="5.3" cy="0.8" rx="6" ry="6"/>
		</g>
		<g>
			<path class="st1" d="M5.3,6.9c-3.3,0-6-2.7-6-6c0-3.3,2.7-6,6-6s6,2.7,6,6C11.3,4.2,8.6,6.9,5.3,6.9z M5.3-2.2c-1.7,0-3,1.4-3,3
				c0,1.7,1.3,3,3,3s3-1.4,3-3C8.3-0.8,7-2.2,5.3-2.2z"/>
		</g>
	</g>
</g>
<g id="Gruppe_80_1_" transform="translate(-1393 -541)">
	<g id="Linie_1-2_1_" class="st2">
		<path class="st1" d="M1741,631.8h-255.7c-0.8,0-1.5-0.7-1.5-1.5s0.7-1.5,1.5-1.5H1741c0.8,0,1.5,0.7,1.5,1.5
			S1741.8,631.8,1741,631.8z"/>
	</g>
	<g id="Ellipse_7-2_1_" transform="translate(1542.179 630)">
		<g>
			<ellipse class="st1" cx="5.3" cy="0.8" rx="6" ry="6"/>
		</g>
		<g>
			<path class="st1" d="M5.3,6.9c-3.3,0-6-2.7-6-6c0-3.3,2.7-6,6-6s6,2.7,6,6C11.3,4.2,8.6,6.9,5.3,6.9z M5.3-2.2c-1.7,0-3,1.4-3,3
				c0,1.7,1.3,3,3,3s3-1.4,3-3C8.3-0.8,7-2.2,5.3-2.2z"/>
		</g>
	</g>
</g>
<g id="Gruppe_81_1_" transform="translate(-1393 -504)">
	<g id="Linie_1-3_1_" class="st2">
		<path class="st1" d="M1741,631.8h-255.7c-0.8,0-1.5-0.7-1.5-1.5s0.7-1.5,1.5-1.5H1741c0.8,0,1.5,0.7,1.5,1.5
			S1741.8,631.8,1741,631.8z"/>
	</g>
	<g id="Ellipse_7-3_1_" transform="translate(1715.179 630)">
		<g>
			<ellipse class="st1" cx="5.3" cy="0.8" rx="6" ry="6"/>
		</g>
		<g>
			<path class="st1" d="M5.3,6.9c-3.3,0-6-2.7-6-6c0-3.3,2.7-6,6-6s6,2.7,6,6C11.3,4.2,8.6,6.9,5.3,6.9z M5.3-2.2c-1.7,0-3,1.4-3,3
				c0,1.7,1.3,3,3,3s3-1.4,3-3C8.3-0.8,7-2.2,5.3-2.2z"/>
		</g>
	</g>
</g>
<g class="st0">
	<path class="st1" d="M5.6,51.1c0-0.8-0.4-1.3-1.2-1.3c-1,0-1.6,0.7-1.9,2.2l-0.2,1.2c-0.3,1.5,0.1,2.2,1.1,2.2
		c0.8,0,1.3-0.4,1.6-1.3h1.6C6,56.1,5,56.9,3,56.9c-1.8,0-2.9-1.2-2.5-3.7l0.2-1.2c0.5-2.6,1.8-3.7,3.9-3.7c1.6,0,2.6,1,2.5,2.7H5.6
		z"/>
	<path class="st1" d="M10.7,56.9c-1.9,0-2.9-1.3-2.5-3.7l0.2-1.2c0.5-2.6,1.8-3.7,3.9-3.7c1.9,0,2.9,1.3,2.5,3.7l-0.2,1.2
		C14.1,55.8,12.8,56.9,10.7,56.9z M9.9,53.3c-0.3,1.6,0.1,2.2,1.1,2.2c1,0,1.6-0.7,1.9-2.2l0.2-1.2c0.3-1.6-0.1-2.2-1.1-2.2
		c-1,0-1.6,0.7-1.9,2.2L9.9,53.3z"/>
	<path class="st1" d="M23.7,48.5l-1.6,8.3h-1.4l-2.3-5.1l-1,5.1h-1.6l1.6-8.3h1.3l2.3,5.2l1-5.2H23.7z"/>
	<path class="st1" d="M31.1,48.5L30.8,50h-3.5L26.9,52h3.1l-0.3,1.4h-3.1L26,56.8h-1.7l1.6-8.3H31.1z"/>
	<path class="st1" d="M33,56.8h-1.7l1.6-8.3h1.7L33,56.8z"/>
	<path class="st1" d="M35.3,56.8l1.6-8.3h2.9c1.9,0,3,1.2,2.5,3.6l-0.2,1.1c-0.5,2.6-1.8,3.6-3.9,3.6H35.3z M40.5,53.2l0.2-1.1
		c0.3-1.4,0-2.2-1.1-2.2h-1.3l-1.1,5.4h1.3C39.7,55.4,40.2,54.7,40.5,53.2z"/>
	<path class="st1" d="M50.2,48.5L49.9,50h-3.5l-0.4,1.9h3.1l-0.3,1.4h-3.1l-0.4,2.2h3.5l-0.3,1.4h-5.2l1.6-8.3H50.2z"/>
	<path class="st1" d="M58.2,48.5l-1.6,8.3h-1.4l-2.3-5.1l-1,5.1h-1.6l1.6-8.3h1.3l2.3,5.2l1-5.2H58.2z"/>
	<path class="st1" d="M64.3,51.1c0-0.8-0.4-1.3-1.2-1.3c-1,0-1.6,0.7-1.9,2.2l-0.2,1.2c-0.3,1.5,0.1,2.2,1.1,2.2
		c0.8,0,1.3-0.4,1.6-1.3h1.6c-0.6,1.8-1.6,2.7-3.5,2.7c-1.8,0-2.9-1.2-2.5-3.7l0.2-1.2c0.5-2.6,1.8-3.7,3.9-3.7c1.6,0,2.6,1,2.5,2.7
		H64.3z"/>
	<path class="st1" d="M73.3,48.5L73,50h-3.5l-0.4,1.9h3.1L72,53.2h-3.1l-0.4,2.2H72l-0.3,1.4h-5.2l1.6-8.3H73.3z"/>
</g>
<g class="st0">
	<path class="st1" d="M6.9,85.5L6.6,87H3.1L2.7,89h3.1l-0.3,1.4H2.5l-0.7,3.4H0.1l1.6-8.3H6.9z"/>
	<path class="st1" d="M13.7,85.5L13.5,87H10l-0.4,1.9h3.1l-0.3,1.4H9.4l-0.4,2.2h3.5l-0.3,1.4H7l1.6-8.3H13.7z"/>
	<path class="st1" d="M13,93.8l4.5-8.3h1.6l1.3,8.3h-1.7l-0.2-1.6h-2.8l-0.8,1.6H13z M16.4,90.8h1.9l-0.4-2.9L16.4,90.8z"/>
	<path class="st1" d="M26.4,93.8l-0.9-3.2h-1.4l-0.6,3.2h-1.7l1.6-8.3h3c1.7,0,2.7,0.8,2.7,2.1c0,1.3-0.7,2.2-1.9,2.6l1,3.5H26.4z
		 M25.5,89.2c1.2,0,1.8-0.3,1.8-1.3c0-0.7-0.5-0.9-1.4-0.9h-1.1l-0.4,2.2H25.5z"/>
</g>
<g class="st0">
	<path class="st1" d="M6.9,122.5L6.6,124H3.1L2.7,126h3.1l-0.3,1.4H2.5l-0.7,3.4H0.1l1.6-8.3H6.9z"/>
	<path class="st1" d="M9.9,130.9c-1.9,0-2.9-1.3-2.5-3.7l0.2-1.2c0.5-2.6,1.8-3.7,3.9-3.7c1.9,0,2.9,1.3,2.5,3.7l-0.2,1.2
		C13.3,129.8,12,130.9,9.9,130.9z M9.1,127.3c-0.3,1.6,0.1,2.2,1.1,2.2c1,0,1.6-0.7,1.9-2.2l0.2-1.2c0.3-1.6-0.1-2.2-1.1-2.2
		c-1,0-1.6,0.7-1.9,2.2L9.1,127.3z"/>
	<path class="st1" d="M20.5,125.1c0-0.8-0.4-1.3-1.2-1.3c-1,0-1.6,0.7-1.9,2.2l-0.2,1.2c-0.3,1.5,0.1,2.2,1.1,2.2
		c0.8,0,1.3-0.4,1.6-1.3h1.6c-0.6,1.8-1.6,2.7-3.5,2.7c-1.8,0-2.9-1.2-2.5-3.7l0.2-1.2c0.5-2.6,1.8-3.7,3.9-3.7c1.6,0,2.6,1,2.5,2.7
		H20.5z"/>
	<path class="st1" d="M30.8,122.5l-0.9,4.8c-0.5,2.7-2,3.6-3.9,3.6c-1.6,0-3-1-2.5-3.5l0.9-4.9h1.7l-1,4.9c-0.3,1.4,0.1,2,1.1,2
		c1.1,0,1.6-0.6,1.9-2l1-4.9H30.8z"/>
	<path class="st1" d="M36.9,124.7c-0.3-0.6-0.6-0.8-1.5-0.8c-0.9,0-1.4,0.4-1.4,1c0,0.6,0.4,0.8,1.4,1.1c1.3,0.4,2.1,1,2.1,2.2
		c0,1.5-1.1,2.7-3.3,2.7c-1.4,0-2.4-0.5-2.9-1.4l1.4-0.9c0.3,0.6,0.8,0.8,1.6,0.8c1.1,0,1.5-0.5,1.5-1.1c0-0.5-0.3-0.8-1.4-1.1
		c-1.3-0.3-2.1-1-2.1-2.2c0-1.4,0.9-2.7,3.2-2.7c1.4,0,2.2,0.5,2.7,1.4L36.9,124.7z"/>
</g>
<g id="Gruppe_82_1_" transform="translate(-1113.727 -602)">
	<g id="Rechteck_73_1_" transform="translate(1337.227 808)">
		<g>
			<path class="st3" d="M13.8-5.2h96c8,0,14.5,6.5,14.5,14.5l0,0c0,8-6.5,14.5-14.5,14.5h-96c-8,0-14.5-6.5-14.5-14.5l0,0
				C-0.7,1.3,5.8-5.2,13.8-5.2z"/>
		</g>
		<g>
			<path class="st1" d="M109.8,23.8h-96c-8,0-14.5-6.5-14.5-14.5S5.8-5.2,13.8-5.2h96c8,0,14.5,6.5,14.5,14.5S117.8,23.8,109.8,23.8
				z M13.8-4.2C6.4-4.2,0.3,1.9,0.3,9.3s6.1,13.5,13.5,13.5h96c7.4,0,13.5-6.1,13.5-13.5s-6.1-13.5-13.5-13.5H13.8z"/>
		</g>
	</g>
	<g class="st0">
		<path class="st1" d="M1355.3,815.4c-0.3-0.6-0.7-0.8-1.5-0.8c-0.9,0-1.5,0.4-1.5,1.2c0,0.8,0.5,1,1.4,1.1c1,0.2,1.8,0.6,1.8,1.8
			c0,1.1-0.8,2.1-2.7,2.1c-1.1,0-1.8-0.4-2.2-1.1l0.8-0.5c0.3,0.5,0.7,0.8,1.6,0.8c1.4,0,1.7-0.6,1.7-1.2c0-0.6-0.4-1-1.3-1.1
			c-1.2-0.2-1.9-0.8-1.9-1.8c0-1.1,0.7-2.1,2.5-2.1c1.1,0,1.7,0.4,2.1,1.1L1355.3,815.4z"/>
		<path class="st1" d="M1362.3,813.8l-0.2,0.8h-2.1l-1.2,6.1h-0.9l1.2-6.1h-2.1l0.1-0.8H1362.3z"/>
		<path class="st1" d="M1366.4,820.7l-0.9-2.9h-1.7l-0.6,2.9h-0.9l1.3-6.9h2.2c1.4,0,2.2,0.7,2.2,1.8c0,1-0.5,1.7-1.8,2l0.9,3.1
			H1366.4z M1365.4,817c1.3,0,1.8-0.5,1.8-1.4c0-0.7-0.4-1.1-1.4-1.1h-1.3l-0.5,2.4H1365.4z"/>
		<path class="st1" d="M1374.4,813.8l-0.1,0.8h-3.3l-0.4,2.2h3l-0.2,0.8h-3l-0.5,2.4h3.3l-0.1,0.8h-4.2l1.3-6.9H1374.4z"/>
		<path class="st1" d="M1379.5,815.4c-0.3-0.6-0.7-0.8-1.5-0.8c-0.9,0-1.5,0.4-1.5,1.2c0,0.8,0.5,1,1.4,1.1c1,0.2,1.8,0.6,1.8,1.8
			c0,1.1-0.8,2.1-2.7,2.1c-1.1,0-1.8-0.4-2.2-1.1l0.7-0.5c0.3,0.5,0.7,0.8,1.6,0.8c1.4,0,1.7-0.6,1.7-1.2c0-0.6-0.4-1-1.3-1.1
			c-1.2-0.2-1.9-0.8-1.9-1.8c0-1.1,0.7-2.1,2.5-2.1c1.1,0,1.7,0.4,2.1,1.1L1379.5,815.4z"/>
		<path class="st1" d="M1385.7,815.4c-0.3-0.6-0.7-0.8-1.5-0.8c-0.9,0-1.5,0.4-1.5,1.2c0,0.8,0.5,1,1.4,1.1c1,0.2,1.8,0.6,1.8,1.8
			c0,1.1-0.8,2.1-2.7,2.1c-1.1,0-1.8-0.4-2.2-1.1l0.7-0.5c0.3,0.5,0.7,0.8,1.6,0.8c1.4,0,1.7-0.6,1.7-1.2c0-0.6-0.4-1-1.3-1.1
			c-1.2-0.2-1.9-0.8-1.9-1.8c0-1.1,0.7-2.1,2.5-2.1c1.1,0,1.7,0.4,2.1,1.1L1385.7,815.4z"/>
		<path class="st1" d="M1394.3,820.7l-0.9-2.9h-1.7l-0.6,2.9h-0.9l1.3-6.9h2.2c1.4,0,2.2,0.7,2.2,1.8c0,1-0.5,1.7-1.8,2l0.9,3.1
			H1394.3z M1393.3,817c1.3,0,1.8-0.5,1.8-1.4c0-0.7-0.4-1.1-1.4-1.1h-1.3l-0.5,2.4H1393.3z"/>
		<path class="st1" d="M1402.3,813.8l-0.2,0.8h-3.3l-0.4,2.2h3l-0.1,0.8h-3l-0.5,2.4h3.3l-0.2,0.8h-4.2l1.3-6.9H1402.3z"/>
		<path class="st1" d="M1402.7,820.7l1.3-6.9h2.2c1.5,0,2.3,0.9,1.9,3.1l-0.1,0.7c-0.4,2.2-1.6,3.1-3.1,3.1H1402.7z M1407.1,817.6
			l0.1-0.7c0.3-1.7-0.1-2.3-1.2-2.3h-1.3l-1,5.3h1.3C1406.1,820,1406.8,819.4,1407.1,817.6z"/>
		<path class="st1" d="M1415.6,813.8l-0.8,4.1c-0.4,2.1-1.5,2.9-3,2.9c-1.5,0-2.4-1-2-2.9l0.8-4.1h0.9l-0.8,4.1
			c-0.3,1.5,0.2,2.1,1.2,2.1c1.3,0,1.8-0.8,2.1-2.1l0.8-4.1H1415.6z"/>
		<path class="st1" d="M1421.2,816c0-1.1-0.4-1.4-1.4-1.4c-1.1,0-1.7,0.6-2.1,2.4l-0.1,0.8c-0.3,1.7,0.1,2.4,1.2,2.4
			c1,0,1.6-0.5,1.9-1.4h0.8c-0.4,1.5-1.3,2.2-2.8,2.2c-1.5,0-2.4-0.9-2-3.1l0.1-0.8c0.4-2.2,1.5-3.1,3.1-3.1c1.4,0,2,0.7,2,2.2
			H1421.2z"/>
		<path class="st1" d="M1428.3,813.8l-0.2,0.8h-2.1l-1.2,6.1h-0.9l1.2-6.1h-2.1l0.1-0.8H1428.3z"/>
		<path class="st1" d="M1429.4,820.7h-0.9l1.3-6.9h0.9L1429.4,820.7z"/>
		<path class="st1" d="M1436.9,817.7c-0.5,2.4-1.5,3.1-3,3.1c-1.6,0-2.4-1-2-3.1l0.2-0.8c0.4-2.2,1.5-3.1,3.1-3.1
			c1.4,0,2.4,0.9,1.9,3.1L1436.9,817.7z M1432.8,817.7c-0.3,1.7,0.1,2.4,1.2,2.4c1.1,0,1.7-0.6,2.1-2.4l0.2-0.8
			c0.3-1.7,0-2.4-1.2-2.4c-1.2,0-1.8,0.7-2.1,2.4L1432.8,817.7z"/>
		<path class="st1" d="M1444.2,813.8l-1.3,6.9h-0.8l-1.9-5.3l-1,5.3h-0.9l1.3-6.9h0.8l2,5.3l1-5.3H1444.2z"/>
	</g>
</g>
<g id="Gruppe_84_1_" transform="translate(-1194.5 -645)">
	<g id="Rechteck_74_1_" transform="translate(1430 808)">
		<g>
			<path class="st3" d="M13.8-5.2h84c8,0,14.5,6.5,14.5,14.5l0,0c0,8-6.5,14.5-14.5,14.5h-84c-8,0-14.5-6.5-14.5-14.5l0,0
				C-0.7,1.3,5.8-5.2,13.8-5.2z"/>
		</g>
		<g>
			<path class="st1" d="M97.8,23.8h-84c-8,0-14.5-6.5-14.5-14.5S5.8-5.2,13.8-5.2h84c8,0,14.5,6.5,14.5,14.5S105.8,23.8,97.8,23.8z
				 M13.8-4.2C6.4-4.2,0.3,1.9,0.3,9.3s6.1,13.5,13.5,13.5h84c7.4,0,13.5-6.1,13.5-13.5S105.3-4.2,97.8-4.2H13.8z"/>
		</g>
	</g>
	<g class="st0">
		<path class="st1" d="M1441.9,820.7l3.7-6.9h0.8l1.1,6.9h-0.9l-0.2-1.6h-2.7l-0.8,1.6H1441.9z M1444.1,818.4h2.2l-0.5-3.3
			L1444.1,818.4z"/>
		<path class="st1" d="M1452.4,813.8c1.5,0,2.1,0.6,2.1,1.5c0,1-0.7,1.7-1.5,1.8c0.7,0.2,1.1,0.7,1.1,1.4c0,1.1-0.6,2.2-2.8,2.2
			h-2.3l1.3-6.9H1452.4z M1450,820h1.5c1.3,0,1.8-0.5,1.8-1.4c0-0.6-0.3-1-1.5-1h-1.3L1450,820z M1450.6,816.8h1.4
			c1.1,0,1.6-0.5,1.6-1.3c0-0.5-0.2-0.8-1.4-0.8h-1.2L1450.6,816.8z"/>
		<path class="st1" d="M1460.1,815.4c-0.3-0.6-0.7-0.8-1.5-0.8c-0.9,0-1.5,0.4-1.5,1.2c0,0.8,0.5,1,1.4,1.1c1,0.2,1.8,0.6,1.8,1.8
			c0,1.1-0.8,2.1-2.7,2.1c-1.1,0-1.8-0.4-2.2-1.1l0.7-0.5c0.3,0.5,0.7,0.8,1.6,0.8c1.4,0,1.7-0.6,1.7-1.2c0-0.6-0.4-1-1.3-1.1
			c-1.2-0.2-1.9-0.8-1.9-1.8c0-1.1,0.7-2.1,2.5-2.1c1.1,0,1.7,0.4,2.1,1.1L1460.1,815.4z"/>
		<path class="st1" d="M1466.9,817.7c-0.5,2.4-1.5,3.1-3,3.1c-1.6,0-2.4-1-2-3.1l0.2-0.8c0.4-2.2,1.5-3.1,3.1-3.1
			c1.4,0,2.4,0.9,1.9,3.1L1466.9,817.7z M1462.8,817.7c-0.3,1.7,0.1,2.4,1.2,2.4c1.1,0,1.7-0.6,2.1-2.4l0.2-0.8
			c0.3-1.7,0-2.4-1.2-2.4c-1.2,0-1.8,0.7-2.1,2.4L1462.8,817.7z"/>
		<path class="st1" d="M1469.2,820h3.3l-0.2,0.8h-4.2l1.3-6.9h0.9L1469.2,820z"/>
		<path class="st1" d="M1480,813.8l-0.8,4.1c-0.4,2.1-1.5,2.9-3,2.9c-1.5,0-2.4-1-2-2.9l0.8-4.1h0.9l-0.8,4.1
			c-0.3,1.5,0.2,2.1,1.2,2.1c1.3,0,1.8-0.8,2.1-2.1l0.8-4.1H1480z"/>
		<path class="st1" d="M1486.5,813.8l-0.2,0.8h-2.1l-1.2,6.1h-0.9l1.2-6.1h-2.1l0.1-0.8H1486.5z"/>
		<path class="st1" d="M1492,813.8l-0.1,0.8h-3.3l-0.4,2.2h3l-0.2,0.8h-3l-0.5,2.4h3.3l-0.1,0.8h-4.2l1.3-6.9H1492z"/>
		<path class="st1" d="M1500.9,813.8l-0.1,0.8h-3.3l-0.4,2.3h3l-0.2,0.8h-3l-0.6,3h-0.9l1.3-6.9H1500.9z"/>
		<path class="st1" d="M1506.5,817.7c-0.5,2.4-1.5,3.1-3,3.1c-1.6,0-2.4-1-2-3.1l0.1-0.8c0.4-2.2,1.5-3.1,3.1-3.1
			c1.4,0,2.4,0.9,1.9,3.1L1506.5,817.7z M1502.3,817.7c-0.3,1.7,0.1,2.4,1.2,2.4c1.1,0,1.7-0.6,2.1-2.4l0.1-0.8
			c0.3-1.7,0-2.4-1.2-2.4c-1.2,0-1.8,0.7-2.1,2.4L1502.3,817.7z"/>
		<path class="st1" d="M1512.5,816c0-1.1-0.4-1.4-1.4-1.4c-1.1,0-1.7,0.6-2.1,2.4l-0.1,0.8c-0.3,1.7,0.1,2.4,1.2,2.4
			c1,0,1.6-0.5,1.9-1.4h0.8c-0.4,1.5-1.3,2.2-2.8,2.2c-1.5,0-2.4-0.9-2-3.1l0.1-0.8c0.4-2.2,1.5-3.1,3.1-3.1c1.4,0,2,0.7,2,2.2
			H1512.5z"/>
		<path class="st1" d="M1520.4,813.8l-0.8,4.1c-0.4,2.1-1.5,2.9-3,2.9c-1.5,0-2.4-1-2-2.9l0.8-4.1h0.9l-0.8,4.1
			c-0.3,1.5,0.2,2.1,1.2,2.1c1.3,0,1.8-0.8,2.1-2.1l0.8-4.1H1520.4z"/>
		<path class="st1" d="M1525.9,815.4c-0.3-0.6-0.7-0.8-1.5-0.8c-0.9,0-1.5,0.4-1.5,1.2c0,0.8,0.5,1,1.4,1.1c1,0.2,1.8,0.6,1.8,1.8
			c0,1.1-0.8,2.1-2.7,2.1c-1.1,0-1.8-0.4-2.2-1.1l0.7-0.5c0.3,0.5,0.7,0.8,1.6,0.8c1.4,0,1.7-0.6,1.7-1.2c0-0.6-0.4-1-1.3-1.1
			c-1.2-0.2-1.9-0.8-1.9-1.8c0-1.1,0.7-2.1,2.5-2.1c1.1,0,1.7,0.4,2.1,1.1L1525.9,815.4z"/>
	</g>
</g>
<g id="Gruppe_83_1_" transform="translate(-1471.364 -667)">
	<g id="Rechteck_75_1_" transform="translate(1574.864 830)">
		<g>
			<path class="st3" d="M13.8-5.2h91c8,0,14.5,6.5,14.5,14.5l0,0c0,8-6.5,14.5-14.5,14.5h-91c-8,0-14.5-6.5-14.5-14.5l0,0
				C-0.7,1.3,5.8-5.2,13.8-5.2z"/>
		</g>
		<g>
			<path class="st1" d="M104.8,23.8h-91c-8,0-14.5-6.5-14.5-14.5S5.8-5.2,13.8-5.2h91c8,0,14.5,6.5,14.5,14.5S112.8,23.8,104.8,23.8
				z M13.8-4.2C6.4-4.2,0.3,1.9,0.3,9.3s6.1,13.5,13.5,13.5h91c7.4,0,13.5-6.1,13.5-13.5s-6.1-13.5-13.5-13.5H13.8z"/>
		</g>
	</g>
	<g class="st0">
		<path class="st1" d="M1591,840.2l2.8-4.3h1l-1.3,6.9h-0.9l1-5.1l-2.4,3.6h-0.7l-1-3.6l-1,5.1h-0.9l1.3-6.9h0.8L1591,840.2z"/>
		<path class="st1" d="M1600.9,839.7c-0.5,2.4-1.5,3.1-3,3.1c-1.6,0-2.4-1-2-3.1l0.1-0.8c0.4-2.2,1.5-3.1,3.1-3.1
			c1.4,0,2.4,0.9,1.9,3.1L1600.9,839.7z M1596.8,839.7c-0.3,1.7,0.1,2.4,1.2,2.4c1.1,0,1.7-0.6,2.1-2.4l0.1-0.8
			c0.3-1.7,0-2.4-1.2-2.4c-1.2,0-1.8,0.7-2.1,2.4L1596.8,839.7z"/>
		<path class="st1" d="M1607.8,835.8l-0.1,0.8h-2.1l-1.2,6.1h-0.9l1.2-6.1h-2.1l0.1-0.8H1607.8z"/>
		<path class="st1" d="M1608.8,842.7h-0.9l1.3-6.9h0.9L1608.8,842.7z"/>
		<path class="st1" d="M1612.6,835.8l0.9,5.5l3-5.5h1l-3.8,6.9h-0.8l-1.2-6.9H1612.6z"/>
		<path class="st1" d="M1616.6,842.7l3.7-6.9h0.8l1.1,6.9h-0.9l-0.2-1.6h-2.7l-0.8,1.6H1616.6z M1618.8,840.4h2.2l-0.5-3.3
			L1618.8,840.4z"/>
		<path class="st1" d="M1628.9,835.8l-0.1,0.8h-2.1l-1.2,6.1h-0.9l1.2-6.1h-2.1l0.1-0.8H1628.9z"/>
		<path class="st1" d="M1630,842.7h-0.9l1.3-6.9h0.9L1630,842.7z"/>
		<path class="st1" d="M1637.5,839.7c-0.5,2.4-1.5,3.1-3,3.1c-1.6,0-2.4-1-2-3.1l0.1-0.8c0.4-2.2,1.5-3.1,3.1-3.1
			c1.4,0,2.4,0.9,1.9,3.1L1637.5,839.7z M1633.4,839.7c-0.3,1.7,0.1,2.4,1.2,2.4c1.1,0,1.7-0.6,2.1-2.4l0.1-0.8
			c0.3-1.7,0-2.4-1.2-2.4c-1.2,0-1.8,0.7-2.1,2.4L1633.4,839.7z"/>
		<path class="st1" d="M1644.8,835.8l-1.3,6.9h-0.8l-1.9-5.3l-1,5.3h-0.9l1.3-6.9h0.8l2,5.3l1-5.3H1644.8z"/>
		<path class="st1" d="M1652.1,835.8c1.5,0,2.1,0.6,2.1,1.5c0,1-0.7,1.7-1.5,1.8c0.7,0.2,1.1,0.7,1.1,1.4c0,1.1-0.6,2.2-2.8,2.2
			h-2.3l1.3-6.9H1652.1z M1649.6,842h1.5c1.3,0,1.8-0.5,1.8-1.4c0-0.6-0.3-1-1.5-1h-1.3L1649.6,842z M1650.3,838.8h1.4
			c1.1,0,1.6-0.5,1.6-1.3c0-0.5-0.2-0.8-1.4-0.8h-1.2L1650.3,838.8z"/>
		<path class="st1" d="M1660.3,839.7c-0.5,2.4-1.5,3.1-3,3.1c-1.6,0-2.4-1-2-3.1l0.1-0.8c0.4-2.2,1.5-3.1,3.1-3.1
			c1.4,0,2.4,0.9,1.9,3.1L1660.3,839.7z M1656.2,839.7c-0.3,1.7,0.1,2.4,1.2,2.4c1.1,0,1.7-0.6,2.1-2.4l0.1-0.8
			c0.3-1.7,0-2.4-1.2-2.4c-1.2,0-1.8,0.7-2.1,2.4L1656.2,839.7z"/>
		<path class="st1" d="M1666.8,839.7c-0.5,2.4-1.5,3.1-3,3.1c-1.6,0-2.4-1-2-3.1l0.1-0.8c0.4-2.2,1.5-3.1,3.1-3.1
			c1.4,0,2.4,0.9,1.9,3.1L1666.8,839.7z M1662.7,839.7c-0.3,1.7,0.1,2.4,1.2,2.4c1.1,0,1.7-0.6,2.1-2.4l0.1-0.8
			c0.3-1.7,0-2.4-1.2-2.4c-1.2,0-1.8,0.7-2.1,2.4L1662.7,839.7z"/>
		<path class="st1" d="M1672.7,837.4c-0.3-0.6-0.7-0.8-1.5-0.8c-0.9,0-1.5,0.4-1.5,1.2c0,0.8,0.5,1,1.4,1.1c1,0.2,1.8,0.6,1.8,1.8
			c0,1.1-0.8,2.1-2.7,2.1c-1.1,0-1.8-0.4-2.2-1.1l0.7-0.5c0.3,0.5,0.7,0.8,1.6,0.8c1.4,0,1.7-0.6,1.7-1.2c0-0.6-0.4-1-1.3-1.1
			c-1.2-0.2-1.9-0.8-1.9-1.8c0-1.1,0.7-2.1,2.5-2.1c1.1,0,1.7,0.4,2.1,1.1L1672.7,837.4z"/>
		<path class="st1" d="M1679.7,835.8l-0.1,0.8h-2.1l-1.2,6.1h-0.9l1.2-6.1h-2.1l0.1-0.8H1679.7z"/>
	</g>
</g>
</svg>
