<!-- Generator: Adobe Illustrator 24.0.2, SVG Export Plug-In  -->
<svg version="1.1" xmlns="http://www.w3.org/2000/svg" xmlns:xlink="http://www.w3.org/1999/xlink" x="0px" y="0px" width="350.1px"
	 height="187.8px" viewBox="0 0 350.1 187.8" style="enable-background:new 0 0 350.1 187.8;" xml:space="preserve">
<style type="text/css">
	.st0{enable-background:new    ;}
	.st1{fill:#FFFFFF;}
	.st2{opacity:0.51;enable-background:new    ;}
	.st3{fill:none;}
</style>
<defs>
</defs>
<g class="st0">
	<path class="st1" d="M0.3,14.8L8.2,0.3H11l2.2,14.5h-3l-0.4-2.8H5l-1.4,2.8H0.3z M6.2,9.6h3.3L8.9,4.5L6.2,9.6z"/>
	<path class="st1" d="M22.8,14.8h-2.7l1.2-6.2c0.3-1.7-0.2-2.2-1.2-2.2c-1,0-1.8,0.7-2.1,2.2l-1.2,6.2h-2.7l2-10.5h2.6l-0.1,0.7
		c0.6-0.5,1.5-0.9,2.5-0.9c1.3,0,2.1,0.6,2.5,1.4c0.8-0.8,2-1.4,3.4-1.4c2.3,0,3.4,1.6,2.9,4.1l-1.3,6.6h-2.7l1.2-6.2
		c0.3-1.6-0.1-2.2-1.2-2.2c-1,0-1.8,0.7-2.1,2.2L22.8,14.8z"/>
	<path class="st1" d="M34.7,4.3l1,6.8l3.4-6.8h2.8l-5.7,11c-1.5,2.8-2.6,3.5-5.6,3.5l0.5-2.4c1.4,0,2-0.4,2.6-1.5L32,4.3H34.7z"/>
	<path class="st1" d="M45.9,3.5l-3.3,2.4L43.7,0h2.8L45.9,3.5z"/>
	<path class="st1" d="M53.4,7.3c-0.4-0.5-0.8-0.8-1.9-0.8c-0.8,0-1.5,0.3-1.5,1c0,0.5,0.5,0.8,1.6,0.9c2.1,0.3,3.2,1.3,3.2,2.9
		c0,2.2-1.5,3.8-4.8,3.8c-2,0-3.2-0.6-3.9-1.8l2.2-1.4c0.3,0.6,0.8,0.9,2.1,0.9c1,0,1.7-0.4,1.7-1c0-0.5-0.5-0.8-1.6-1
		c-1.8-0.3-3.2-1.2-3.2-2.9c0-2.2,1.5-3.7,4.6-3.7c1.9,0,3.1,0.5,3.7,1.8L53.4,7.3z"/>
	<path class="st1" d="M69.5,8.2L75,0.3h3l-2.8,14.5h-2.8l1.7-9l-4.4,6.4h-1.8l-1.9-6.3l-1.7,8.9h-2.8l2.8-14.5h2.6L69.5,8.2z"/>
	<path class="st1" d="M80,4.3h2.7l-2,10.5H78L80,4.3z M80.7,0.3h2.9l-0.5,2.6h-2.9L80.7,0.3z"/>
	<path class="st1" d="M85.2,4.3h2.6l-0.1,0.7c0.5-0.5,1.4-0.9,2.6-0.9c2.1,0,3.6,1.1,3,4.1L92,14.8h-2.7l1.2-6.1
		c0.3-1.7-0.1-2.3-1.3-2.3c-1.2,0-2,0.9-2.3,2.3l-1.2,6.1h-2.7L85.2,4.3z"/>
	<path class="st1" d="M103,0.3h2.7l-2.8,14.5h-2.7l0.1-0.5c-0.6,0.5-1.4,0.7-2.4,0.7c-2.5,0-3.8-2-3.2-4.7L95,8.8
		c0.6-3.1,2.4-4.7,4.9-4.7c1.1,0,1.8,0.3,2.3,0.8L103,0.3z M101.1,10.1l0.3-1.3c0.3-1.5-0.1-2.4-1.4-2.4c-1.3,0-2,0.9-2.4,2.6
		l-0.2,1.1c-0.3,1.5-0.1,2.6,1.4,2.6C100.3,12.7,100.8,11.6,101.1,10.1z"/>
	<path class="st1" d="M112.3,7.3c-0.4-0.5-0.8-0.8-1.9-0.8c-0.8,0-1.5,0.3-1.5,1c0,0.5,0.5,0.8,1.6,0.9c2.1,0.3,3.2,1.3,3.2,2.9
		c0,2.2-1.5,3.8-4.8,3.8c-2,0-3.2-0.6-3.9-1.8l2.2-1.4c0.3,0.6,0.8,0.9,2.1,0.9c1,0,1.7-0.4,1.7-1c0-0.5-0.5-0.8-1.6-1
		c-1.8-0.3-3.2-1.2-3.2-2.9c0-2.2,1.5-3.7,4.6-3.7c1.9,0,3.1,0.5,3.7,1.8L112.3,7.3z"/>
	<path class="st1" d="M123.3,13.3c-1,1.3-2.4,1.7-4.2,1.7c-3,0-4.3-2-3.8-4.7l0.3-1.4c0.6-3.2,2.2-4.7,5.2-4.7c2.9,0,3.9,2,3.4,4.9
		l-0.2,1.2h-6c-0.3,1.4,0,2.5,1.5,2.5c1.1,0,1.6-0.3,2.1-0.9L123.3,13.3z M118.3,8.3h3.3c0.2-1.4-0.2-1.9-1.2-1.9
		C119.3,6.4,118.7,7.1,118.3,8.3z"/>
	<path class="st1" d="M126.3,4.3h1.3l0.4-2.3h2.7l-0.4,2.3h2.1l-0.4,2.3h-2.1L129,11c-0.2,1-0.1,1.5,0.9,1.5h0.9l-0.5,2.4h-1.1
		c-2.2,0-3.4-0.7-2.9-3.4l0.9-4.8h-1.3L126.3,4.3z"/>
	<path class="st1" d="M135,14.8h-2.9l0.5-2.9h2.9L135,14.8z M136.5,7.2h-2.9l0.5-2.9h2.9L136.5,7.2z"/>
</g>
<g id="Gruppe_73_1_" transform="translate(-1392.5 -578)">
	<g id="Linie_1_1_" class="st2">
		<path class="st1" d="M1741.1,631.8h-264.7c-0.8,0-1.5-0.7-1.5-1.5s0.7-1.5,1.5-1.5h264.7c0.8,0,1.5,0.7,1.5,1.5
			S1741.9,631.8,1741.1,631.8z"/>
	</g>
	<g id="Ellipse_7_1_" transform="translate(1561.179 630)">
		<g>
			<ellipse class="st1" cx="5.4" cy="0.8" rx="6" ry="6"/>
		</g>
		<g>
			<path class="st1" d="M5.4,6.9c-3.3,0-6-2.7-6-6s2.7-6,6-6s6,2.7,6,6S8.7,6.9,5.4,6.9z M5.4-2.2c-1.7,0-3,1.4-3,3s1.3,3,3,3
				s3-1.4,3-3S7-2.2,5.4-2.2z"/>
		</g>
	</g>
</g>
<g id="Gruppe_74_1_" transform="translate(-1392.5 -541)">
	<g id="Linie_1-2_1_" class="st2">
		<path class="st1" d="M1741.1,631.8h-264.7c-0.8,0-1.5-0.7-1.5-1.5s0.7-1.5,1.5-1.5h264.7c0.8,0,1.5,0.7,1.5,1.5
			S1741.9,631.8,1741.1,631.8z"/>
	</g>
	<g id="Ellipse_7-2_1_" transform="translate(1521.179 630)">
		<g>
			<ellipse class="st1" cx="5.4" cy="0.8" rx="6" ry="6"/>
		</g>
		<g>
			<path class="st1" d="M5.4,6.9c-3.3,0-6-2.7-6-6c0-3.3,2.7-6,6-6s6,2.7,6,6C11.4,4.2,8.7,6.9,5.4,6.9z M5.4-2.2c-1.7,0-3,1.4-3,3
				c0,1.7,1.3,3,3,3s3-1.4,3-3C8.4-0.8,7-2.2,5.4-2.2z"/>
		</g>
	</g>
</g>
<g id="Gruppe_75_1_" transform="translate(-1392.5 -504)">
	<g id="Linie_1-3_1_" class="st2">
		<path class="st1" d="M1741.1,631.8h-264.7c-0.8,0-1.5-0.7-1.5-1.5s0.7-1.5,1.5-1.5h264.7c0.8,0,1.5,0.7,1.5,1.5
			S1741.9,631.8,1741.1,631.8z"/>
	</g>
	<g id="Ellipse_7-3_1_" transform="translate(1681.179 630)">
		<g>
			<ellipse class="st1" cx="5.4" cy="0.8" rx="6" ry="6"/>
		</g>
		<g>
			<path class="st1" d="M5.4,6.9c-3.3,0-6-2.7-6-6c0-3.3,2.7-6,6-6s6,2.7,6,6C11.4,4.2,8.7,6.9,5.4,6.9z M5.4-2.2c-1.7,0-3,1.4-3,3
				c0,1.7,1.3,3,3,3s3-1.4,3-3C8.4-0.8,7-2.2,5.4-2.2z"/>
		</g>
	</g>
</g>
<g class="st0">
	<path class="st1" d="M7.5,48.5L7.2,50H3.7l-0.4,1.9h3.1l-0.3,1.4H3.1l-0.4,2.2h3.5l-0.3,1.4H0.7l1.6-8.3H7.5z"/>
	<path class="st1" d="M12.2,53.1l3.2-4.5H17l-1.6,8.3h-1.6l1-5.1l-2.5,3.6h-1l-1.1-3.6l-1,5.1H7.6l1.6-8.3h1.5L12.2,53.1z"/>
	<path class="st1" d="M19.9,53.9l-0.6,2.9h-1.7l1.6-8.3h3c1.6,0,2.7,0.9,2.7,2.3c0,1.9-1.3,3.1-3.7,3.1H19.9z M21.2,52.5
		c1.4,0,1.9-0.6,1.9-1.5c0-0.6-0.4-1-1.5-1h-1l-0.5,2.5H21.2z"/>
	<path class="st1" d="M23.9,56.8l4.5-8.3H30l1.3,8.3h-1.7l-0.2-1.6h-2.8l-0.8,1.6H23.9z M27.3,53.8h1.9l-0.4-2.9L27.3,53.8z"/>
	<path class="st1" d="M39.3,48.5L39,50h-2.3l-1.3,6.8h-1.7l1.3-6.8h-2.3l0.3-1.4H39.3z"/>
	<path class="st1" d="M41.9,51.8h2.9l0.6-3.3h1.7l-1.6,8.3h-1.7l0.7-3.6h-2.9l-0.7,3.6h-1.7l1.6-8.3h1.7L41.9,51.8z"/>
	<path class="st1" d="M50.4,48.5l0.9,3.1l2.1-3.1h2l-3.5,4.9l-0.7,3.4h-1.7l0.7-3.4l-1.6-4.9H50.4z"/>
</g>
<g class="st0">
	<path class="st1" d="M3.4,88.8h2.9l0.6-3.3h1.7l-1.6,8.3H5.3l0.7-3.6H3.1l-0.7,3.6H0.7l1.6-8.3H4L3.4,88.8z"/>
	<path class="st1" d="M17.2,85.5l-0.9,4.8c-0.5,2.7-2,3.6-3.9,3.6c-1.6,0-3-1-2.5-3.5l0.9-4.9h1.7l-1,4.9c-0.3,1.4,0.1,2,1.1,2
		c1.1,0,1.6-0.6,1.9-2l1-4.9H17.2z"/>
	<path class="st1" d="M22.4,93.8l-0.9-3.2h-1.4l-0.6,3.2h-1.7l1.6-8.3h3c1.7,0,2.7,0.8,2.7,2.1c0,1.3-0.7,2.2-1.9,2.6l1,3.5H22.4z
		 M21.5,89.2c1.2,0,1.8-0.3,1.8-1.3c0-0.7-0.5-0.9-1.4-0.9h-1.1l-0.4,2.2H21.5z"/>
	<path class="st1" d="M32.8,85.5L32.5,87h-2.3l-1.3,6.8h-1.7l1.3-6.8h-2.3l0.3-1.4H32.8z"/>
</g>
<g class="st0">
	<path class="st1" d="M1.5,129c0.3,0.4,0.6,0.6,1.1,0.6c0.8,0,1.3-0.4,1.6-1.9l1-5.1h1.7l-1,5.1c-0.5,2.4-1.6,3.3-3.4,3.3
		c-1.2,0-2-0.4-2.4-1.2L1.5,129z"/>
	<path class="st1" d="M10.4,130.9c-1.9,0-2.9-1.3-2.5-3.7l0.2-1.2c0.5-2.6,1.8-3.7,3.9-3.7c1.9,0,2.9,1.3,2.5,3.7l-0.2,1.2
		C13.7,129.8,12.5,130.9,10.4,130.9z M9.6,127.3c-0.3,1.6,0.1,2.2,1.1,2.2c1,0,1.6-0.7,1.9-2.2l0.2-1.2c0.3-1.6-0.1-2.2-1.1-2.2
		c-1,0-1.6,0.7-1.9,2.2L9.6,127.3z"/>
	<path class="st1" d="M17.9,122.5l0.9,3.1l2.1-3.1h2l-3.5,4.9l-0.7,3.4H17l0.7-3.4l-1.6-4.9H17.9z"/>
</g>
<g id="Gruppe_77_1_" transform="translate(-1229 -645)">
	<g id="Rechteck_74_1_" transform="translate(1450 808)">
		<g>
			<path class="st3" d="M14.4-5.2h98c8.3,0,15,6.7,15,15l0,0c0,8.3-6.7,15-15,15h-98c-8.3,0-15-6.7-15-15l0,0
				C-0.6,1.5,6.1-5.2,14.4-5.2z"/>
		</g>
		<g>
			<path class="st1" d="M112.4,24.8h-98c-8.3,0-15-6.7-15-15s6.7-15,15-15h98c8.3,0,15,6.7,15,15S120.7,24.8,112.4,24.8z M14.4-4.2
				c-7.7,0-14,6.3-14,14s6.3,14,14,14h98c7.7,0,14-6.3,14-14s-6.3-14-14-14H14.4z"/>
		</g>
	</g>
	<g class="st0">
		<path class="st1" d="M1468.1,819.3l3.1-4.8h1.1l-1.5,7.6h-0.9l1.1-5.6l-2.6,4h-0.8l-1.1-4l-1.1,5.6h-0.9l1.5-7.6h0.9L1468.1,819.3
			z"/>
		<path class="st1" d="M1479.3,814.5l-0.2,0.9h-3.6l-0.5,2.4h3.3l-0.2,0.9h-3.3l-0.5,2.6h3.6l-0.2,0.9h-4.6l1.5-7.6H1479.3z"/>
		<path class="st1" d="M1486.4,814.5l-1.5,7.6h-0.9l-2.1-5.8l-1.1,5.8h-0.9l1.5-7.6h0.9l2.2,5.9l1.1-5.9H1486.4z"/>
		<path class="st1" d="M1493.5,814.5l-0.2,0.9h-2.3l-1.3,6.7h-0.9l1.3-6.7h-2.3l0.2-0.9H1493.5z"/>
		<path class="st1" d="M1492.4,822.1l4.1-7.6h0.9l1.2,7.6h-0.9l-0.3-1.7h-3l-0.9,1.7H1492.4z M1494.8,819.5h2.4l-0.5-3.6
			L1494.8,819.5z"/>
		<path class="st1" d="M1501.3,821.3h3.6l-0.2,0.9h-4.6l1.5-7.6h0.9L1501.3,821.3z"/>
		<path class="st1" d="M1514.6,816.2c-0.3-0.6-0.8-0.9-1.7-0.9c-1,0-1.7,0.4-1.7,1.3c0,0.9,0.6,1.1,1.6,1.3c1.1,0.2,2,0.7,2,2
			c0,1.3-0.8,2.3-3,2.3c-1.2,0-2-0.5-2.5-1.3l0.8-0.5c0.4,0.6,0.8,0.9,1.8,0.9c1.5,0,1.9-0.7,1.9-1.4c0-0.7-0.4-1.1-1.4-1.3
			c-1.3-0.2-2.1-0.8-2.1-1.9c0-1.2,0.8-2.3,2.8-2.3c1.2,0,1.9,0.4,2.4,1.3L1514.6,816.2z"/>
		<path class="st1" d="M1522.3,814.5l-0.2,0.9h-2.3l-1.3,6.7h-0.9l1.3-6.7h-2.3l0.2-0.9H1522.3z"/>
		<path class="st1" d="M1521.3,822.1l4.1-7.6h0.9l1.2,7.6h-0.9l-0.3-1.7h-3l-0.9,1.7H1521.3z M1523.7,819.5h2.4l-0.5-3.6
			L1523.7,819.5z"/>
		<path class="st1" d="M1532.8,814.5c1.6,0,2.3,0.6,2.3,1.7c0,1.1-0.7,1.8-1.6,2c0.8,0.2,1.2,0.8,1.2,1.5c0,1.3-0.7,2.5-3.1,2.5
			h-2.6l1.5-7.6H1532.8z M1530.1,821.3h1.6c1.4,0,2-0.6,2-1.5c0-0.7-0.4-1.1-1.6-1.1h-1.4L1530.1,821.3z M1530.8,817.7h1.5
			c1.2,0,1.8-0.6,1.8-1.5c0-0.6-0.3-0.9-1.5-0.9h-1.4L1530.8,817.7z"/>
		<path class="st1" d="M1537.2,822.1h-0.9l1.5-7.6h0.9L1537.2,822.1z"/>
		<path class="st1" d="M1540.8,821.3h3.6l-0.2,0.9h-4.6l1.5-7.6h0.9L1540.8,821.3z"/>
		<path class="st1" d="M1546.8,822.1h-0.9l1.5-7.6h0.9L1546.8,822.1z"/>
		<path class="st1" d="M1555.5,814.5l-0.2,0.9h-2.3l-1.3,6.7h-0.9l1.3-6.7h-2.3l0.2-0.9H1555.5z"/>
		<path class="st1" d="M1557.3,814.5l1.2,3.3l2.4-3.3h1.1l-3.2,4.3l-0.6,3.3h-0.9l0.6-3.3l-1.5-4.3H1557.3z"/>
	</g>
</g>
<g id="Gruppe_76_1_" transform="translate(-1506 -667)">
	<g id="Rechteck_75_1_" transform="translate(1575 830)">
		<g>
			<path class="st3" d="M14.4-5.2h108c8.3,0,15,6.7,15,15l0,0c0,8.3-6.7,15-15,15h-108c-8.3,0-15-6.7-15-15l0,0
				C-0.6,1.5,6.1-5.2,14.4-5.2z"/>
		</g>
		<g>
			<path class="st1" d="M122.4,24.8h-108c-8.3,0-15-6.7-15-15s6.7-15,15-15h108c8.3,0,15,6.7,15,15S130.7,24.8,122.4,24.8z
				 M14.4-4.2c-7.7,0-14,6.3-14,14s6.3,14,14,14h108c7.7,0,14-6.3,14-14s-6.3-14-14-14H14.4z"/>
		</g>
	</g>
	<g class="st0">
		<path class="st1" d="M1600.8,837.1l-0.1,0.8h-2.1l-1.2,6.1h-0.9l1.2-6.1h-2.1l0.1-0.8H1600.8z"/>
		<path class="st1" d="M1604.8,844l-0.9-2.9h-1.7l-0.6,2.9h-0.9l1.3-6.9h2.2c1.4,0,2.2,0.7,2.2,1.8c0,1-0.5,1.7-1.8,2l0.9,3.1
			H1604.8z M1603.9,840.3c1.3,0,1.8-0.5,1.8-1.4c0-0.7-0.4-1.1-1.4-1.1h-1.3l-0.5,2.4H1603.9z"/>
		<path class="st1" d="M1606.6,844l3.7-6.9h0.8l1.1,6.9h-0.9l-0.2-1.6h-2.7l-0.8,1.6H1606.6z M1608.8,841.6h2.2l-0.5-3.3
			L1608.8,841.6z"/>
		<path class="st1" d="M1619.9,837.1l-0.8,4.1c-0.4,2.1-1.5,2.9-3,2.9c-1.5,0-2.4-1-2-2.9l0.8-4.1h0.9l-0.8,4.1
			c-0.3,1.5,0.2,2.1,1.2,2.1c1.3,0,1.8-0.8,2.1-2.1l0.8-4.1H1619.9z"/>
		<path class="st1" d="M1624.1,841.4l2.8-4.3h1l-1.3,6.9h-0.9l1-5.1l-2.4,3.6h-0.7l-1-3.6l-1,5.1h-0.9l1.3-6.9h0.8L1624.1,841.4z"/>
		<path class="st1" d="M1628.1,844l3.7-6.9h0.8l1.1,6.9h-0.9l-0.2-1.6h-2.7l-0.8,1.6H1628.1z M1630.3,841.6h2.2l-0.5-3.3
			L1630.3,841.6z"/>
		<path class="st1" d="M1642.1,844l-0.9-2.9h-1.7l-0.6,2.9h-0.9l1.3-6.9h2.2c1.4,0,2.2,0.7,2.2,1.8c0,1-0.5,1.7-1.8,2l0.9,3.1
			H1642.1z M1641.1,840.3c1.3,0,1.8-0.5,1.8-1.4c0-0.7-0.4-1.1-1.4-1.1h-1.3l-0.5,2.4H1641.1z"/>
		<path class="st1" d="M1650.2,837.1l-0.1,0.8h-3.3l-0.4,2.2h3l-0.1,0.8h-3l-0.5,2.4h3.3l-0.1,0.8h-4.2l1.3-6.9H1650.2z"/>
		<path class="st1" d="M1650.6,844l1.3-6.9h2.2c1.5,0,2.3,0.9,1.9,3.1l-0.1,0.7c-0.4,2.2-1.6,3.1-3.1,3.1H1650.6z M1655,840.9
			l0.1-0.7c0.3-1.7-0.1-2.3-1.2-2.3h-1.3l-1,5.3h1.3C1654,843.2,1654.7,842.6,1655,840.9z"/>
		<path class="st1" d="M1663.5,837.1l-0.8,4.1c-0.4,2.1-1.5,2.9-3,2.9c-1.5,0-2.4-1-2-2.9l0.8-4.1h0.9l-0.8,4.1
			c-0.3,1.5,0.2,2.1,1.2,2.1c1.3,0,1.8-0.8,2.1-2.1l0.8-4.1H1663.5z"/>
		<path class="st1" d="M1669,839.3c0-1.1-0.4-1.4-1.4-1.4c-1.1,0-1.7,0.6-2.1,2.4l-0.1,0.8c-0.3,1.7,0.1,2.4,1.2,2.4
			c1,0,1.6-0.5,1.9-1.4h0.8c-0.4,1.5-1.3,2.2-2.8,2.2c-1.5,0-2.4-0.9-2-3.1l0.1-0.8c0.4-2.2,1.5-3.1,3.1-3.1c1.4,0,2,0.7,2,2.2H1669
			z"/>
		<path class="st1" d="M1676.2,837.1l-0.1,0.8h-2.1l-1.2,6.1h-0.9l1.2-6.1h-2.1l0.1-0.8H1676.2z"/>
		<path class="st1" d="M1677.2,844h-0.9l1.3-6.9h0.9L1677.2,844z"/>
		<path class="st1" d="M1684.8,840.9c-0.5,2.4-1.5,3.1-3,3.1c-1.6,0-2.4-1-2-3.1l0.1-0.8c0.4-2.2,1.5-3.1,3.1-3.1
			c1.4,0,2.4,0.9,1.9,3.1L1684.8,840.9z M1680.6,840.9c-0.3,1.7,0.1,2.4,1.2,2.4c1.1,0,1.7-0.6,2.1-2.4l0.1-0.8
			c0.3-1.7,0-2.4-1.2-2.4c-1.2,0-1.8,0.7-2.1,2.4L1680.6,840.9z"/>
		<path class="st1" d="M1692,837.1l-1.3,6.9h-0.8l-1.9-5.3l-1,5.3h-0.9l1.3-6.9h0.8l2,5.3l1-5.3H1692z"/>
	</g>
</g>
</svg>
