<?xml version="1.0" encoding="utf-8"?>
<!-- Generator: Adobe Illustrator 24.0.2, SVG Export Plug-In . SVG Version: 6.00 Build 0)  -->
<svg version="1.1"
	 id="svg8" inkscape:version="0.92.4 (5da689c313, 2019-01-14)" sodipodi:docname="neuralink.svg" xmlns:cc="http://creativecommons.org/ns#" xmlns:dc="http://purl.org/dc/elements/1.1/" xmlns:inkscape="http://www.inkscape.org/namespaces/inkscape" xmlns:rdf="http://www.w3.org/1999/02/22-rdf-syntax-ns#" xmlns:sodipodi="http://sodipodi.sourceforge.net/DTD/sodipodi-0.dtd" xmlns:svg="http://www.w3.org/2000/svg"
	 xmlns="http://www.w3.org/2000/svg" xmlns:xlink="http://www.w3.org/1999/xlink" x="0px" y="0px" viewBox="0 0 312.6 60.8"
	 style="enable-background:new 0 0 312.6 60.8;" xml:space="preserve">
<style type="text/css">
	.st0{fill:#FFFFFF;}
</style>
<sodipodi:namedview  bordercolor="#666666" borderopacity="1.0" id="base" inkscape:current-layer="layer1" inkscape:cx="43.889247" inkscape:cy="53.523853" inkscape:document-units="mm" inkscape:pageopacity="0.0" inkscape:pageshadow="2" inkscape:window-height="1017" inkscape:window-maximized="1" inkscape:window-width="1920" inkscape:window-x="-8" inkscape:window-y="176" inkscape:zoom="1.4142136" pagecolor="#ffffff" showgrid="false">
	</sodipodi:namedview>
<g id="layer1_1_" transform="translate(-196.458 -140.336)">
	<g id="g5482_1_" transform="translate(240.505 140.336)">
		<path id="path902_1_" class="st0" d="M257,28.1l-5.8-11.4l-2.7,2.8l-1.8,8.6H241l5.8-27.9h5.6l-2.5,12l11.5-12h7.3l-13.2,13.1
			l8.1,14.8L257,28.1z M224.7,28.1l-7.5-18.7l-3.4,18.7H209l5-27.8h5l7.2,18.1l3.3-18.1h4.9l-5,27.8H224.7z M191.3,28l5.6-27.8h5.4
			L196.7,28H191.3z M165.1,27.8L171,0.5h5.7L172,22.7h11.3l-1.1,5.1L165.1,27.8z M83.4,28.7c-2.8,0.2-5.6-0.8-7.7-2.6
			c-1.9-1.9-2.9-4.5-2.7-7.1c0-0.6,0.1-1.3,0.2-1.9l3.2-16.7h5.2l-3.1,16.6c-0.1,0.4-0.2,0.9-0.1,1.4c0,1.4,0.5,2.7,1.4,3.7
			c1,1,2.4,1.5,3.8,1.5c3.3,0,5.4-2.2,6.2-6.5l3.2-16.5H98L94.8,17c-0.8,4.1-2.1,7-4,8.9C88.8,27.8,86.2,28.8,83.4,28.7L83.4,28.7z
			 M151.3,28.3l-0.6-4.8h-10.2l-2.4,4.8h-6l14.4-28.1h6.3l3.9,28.1L151.3,28.3z M148.8,6.2l-5.9,12.1h7.4L148.8,6.2z M119.1,28
			l-3-9.9h-4.1l-2,9.9h-5.3l5.5-27.8h10.7c2.1-0.1,4.1,0.8,5.5,2.2c1.5,1.5,2.3,3.5,2.2,5.6c0.1,2.3-0.7,4.5-2,6.4
			c-1.2,1.7-3.1,2.9-5.1,3.3L125,28L119.1,28z M118.6,12.9c1.2,0.1,2.4-0.4,3.3-1.2c0.8-0.8,1.2-1.9,1.2-3.1c0-0.9-0.3-1.7-1-2.3
			c-0.6-0.6-1.4-0.9-2.2-0.9h-5.4l-1.5,7.5H118.6z M45.2,28.1L50.6,0h17.5l-1,5.3H54.9l-1.1,5.9h11.9l-1,5.3H52.7l-1.2,6.4h12.2
			l-1,5.3L45.2,28.1z M28.6,28L21.3,9.3L17.9,28h-4.8l4.9-27.7H23l7.1,18l3.3-18h4.8L33.2,28H28.6z"/>
	</g>
	<path id="path5412_1_" class="st0" d="M196.5,182.4h45l-0.3-2.4h-38.6l27.4-26.5c3.8-3.8,10.4-1.3,11.5,4.7
		c2,12.4,3.5,25.6,5.2,38.3c0.3,2.9,3,4.9,5.8,4.6c1.3-0.2,2.4-0.7,3.2-1.7L275,180h-25l0.3,2.4h18.9l-14.9,15.1
		c-2.1,2.1-4.6,2-5.5-1.5l-5.2-38.8l0,0c-0.8-5-5.4-8.4-10.4-7.7c-1.8,0.3-3.4,1.1-4.8,2.3L196.5,182.4z"/>
</g>
</svg>
