<!-- Generator: Adobe Illustrator 24.0.2, SVG Export Plug-In  -->
<svg version="1.1" xmlns="http://www.w3.org/2000/svg" xmlns:xlink="http://www.w3.org/1999/xlink" x="0px" y="0px" width="1000px"
	 height="1000px" viewBox="0 0 1000 1000" style="enable-background:new 0 0 1000 1000;" xml:space="preserve">
<style type="text/css">
	.st0{fill:#D1D1D1;}
	.st1{fill:#46166B;}
</style>
<defs>
</defs>
<circle class="st0" cx="500" cy="500" r="500"/>
<g>
	<path d="M308.4,612.2v38.3h-7.1L285.2,624v26.5h-6.9v-38.3h7.1l16.1,26.4v-26.4H308.4z"/>
	<path d="M320.9,631.4c0-12,7.4-20,18.3-20c10.9,0,18.3,8,18.3,20c0,12-7.4,20-18.3,20C328.3,651.4,320.9,643.4,320.9,631.4z
		 M350.6,631.4c0-8.3-4.5-13.5-11.4-13.5c-7,0-11.4,5.1-11.4,13.5c0,8.3,4.5,13.4,11.4,13.4C346.2,644.8,350.6,639.7,350.6,631.4z"
		/>
	<path d="M419,612.2v38.3h-7.1L395.7,624v26.5h-6.9v-38.3h7.1l16.1,26.4v-26.4H419z"/>
	<path d="M431.4,631.4c0-12,7.4-20,18.3-20c10.9,0,18.3,8,18.3,20c0,12-7.4,20-18.3,20C438.9,651.4,431.4,643.4,431.4,631.4z
		 M461.2,631.4c0-8.3-4.5-13.5-11.4-13.5c-7,0-11.4,5.1-11.4,13.5c0,8.3,4.5,13.4,11.4,13.4C456.7,644.8,461.2,639.7,461.2,631.4z"
		/>
	<path d="M487.1,618.5h-12v-6.3H506v6.3h-12v32h-6.9V618.5z"/>
	<path d="M516.8,612.2h6.9v38.3h-6.9V612.2z"/>
	<path d="M536.2,631.4c0-12.3,7.3-20,18.6-20c8.1,0,14.2,3.9,17,11.2l-6.3,2.5c-1.7-4.8-5.4-7.1-10.7-7.1c-7.4,0-11.7,4.8-11.7,13.4
		c0,8.6,4.3,13.5,11.7,13.5c5.3,0,9-2.5,10.7-7.3l6.4,2.4c-2.7,7.4-8.9,11.4-17.1,11.4C543.5,651.4,536.2,643.6,536.2,631.4z"/>
	<path d="M602.7,642.6h-15l-2.9,7.9h-7.5l15.3-38.3h5.2l15.3,38.3h-7.5L602.7,642.6z M600.3,636.3l-5.2-14l-5.2,14H600.3z"/>
	<path d="M623.6,612.2H637c7.6,0,12.2,3.6,12.2,9.7c0,3.6-1.5,6.4-4.2,8c4.1,1.5,6.3,4.7,6.3,9.5c0,7-4.7,11.2-12.5,11.2h-15.1
		V612.2z M637,627.4c3.5,0,5.3-1.5,5.3-4.3c0-2.9-1.9-4.6-5.3-4.6h-6.5v8.9H637z M638.1,644.2c3.8,0,6.2-2.1,6.2-5.4
		c0-3.2-2.1-5-6.2-5h-7.6v10.4H638.1z"/>
	<path d="M663.7,612.2h6.9v32H687v6.3h-23.3V612.2z"/>
	<path d="M697.8,612.2h25.5v6.3h-18.6v9.1H722v6.3h-17.3v10.2h18.6v6.3h-25.5V612.2z"/>
	<path d="M282.2,705.7l6.8-1.7c0.5,4.6,3.5,7.1,8,7.1c3.8,0,6.3-1.9,6.3-5.2c0-2.6-2-4.3-7.6-6.5c-8-3.1-10.9-6-10.9-11.6
		c0-6.2,4.8-10.4,11.9-10.4c5.2,0,9.2,2.4,11.7,7l-5.7,3.5c-1.3-2.9-3.6-4.4-6.2-4.4c-2.8,0-4.8,1.8-4.8,4.2c0,2.5,1.9,4,7.6,6.2
		c8.2,3.1,10.9,6,10.9,11.5c0,7.1-5.4,11.9-13.3,11.9C289.3,717.3,283.3,712.7,282.2,705.7z"/>
	<path d="M322.1,678.2h6.9v38.3h-6.9V678.2z"/>
	<path d="M344.2,678.2h11.1c12.7,0,20,7,20,19.5c0,12.2-7,18.9-20,18.9h-11.1V678.2z M354.6,710.2c9.7,0,13.7-3.8,13.7-12.8
		c0-8.9-4.1-12.9-13.1-12.9H351v25.7H354.6z"/>
	<path d="M387.7,678.2h25.5v6.3h-18.6v9.1h17.3v6.3h-17.3v10.2h18.6v6.3h-25.5V678.2z"/>
	<path d="M425.6,697.8h15.8v5h-15.8V697.8z"/>
	<path d="M455.5,678.2H481v6.3h-18.6v9.1h17.3v6.3h-17.3v10.2H481v6.3h-25.5V678.2z"/>
	<path d="M494.6,678.2h27.2v6.3h-20.3v9.1h17.9v6.3h-17.9v16.6h-6.9V678.2z"/>
	<path d="M533.4,678.2h27.2v6.3h-20.3v9.1h17.9v6.3h-17.9v16.6h-6.9V678.2z"/>
	<path d="M572.1,678.2h25.5v6.3H579v9.1h17.3v6.3H579v10.2h18.6v6.3h-25.5V678.2z"/>
	<path d="M608.5,697.4c0-12.3,7.3-20,18.6-20c8.1,0,14.2,3.9,17,11.2l-6.3,2.5c-1.7-4.8-5.4-7.1-10.7-7.1c-7.4,0-11.7,4.8-11.7,13.4
		c0,8.6,4.3,13.5,11.7,13.5c5.3,0,9-2.5,10.7-7.3l6.4,2.4c-2.7,7.4-8.9,11.4-17.1,11.4C615.8,717.4,608.5,709.6,608.5,697.4z"/>
	<path d="M663.4,684.5h-12v-6.3h30.9v6.3h-12v32h-6.9V684.5z"/>
	<path d="M689.4,705.7l6.8-1.7c0.5,4.6,3.5,7.1,8,7.1c3.8,0,6.3-1.9,6.3-5.2c0-2.6-2-4.3-7.6-6.5c-8-3.1-10.9-6-10.9-11.6
		c0-6.2,4.8-10.4,11.9-10.4c5.2,0,9.2,2.4,11.7,7l-5.7,3.5c-1.3-2.9-3.6-4.4-6.2-4.4c-2.8,0-4.8,1.8-4.8,4.2c0,2.5,1.9,4,7.6,6.2
		c8.2,3.1,10.9,6,10.9,11.5c0,7.1-5.4,11.9-13.3,11.9C696.4,717.3,690.5,712.7,689.4,705.7z"/>
</g>
<g id="AMA_Wire_xAE__1_" transform="translate(-30.331438,-42.099998)">
	<g id="g10_1_">
	</g>
	<g id="g28_1_">
		<g id="g30_1_">
			<path id="path32_1_" class="st1" d="M855.5,498.2l-17.9-40.4c-12.4,8.5-17.1,14-17.1,14l19.4,38.1
				C839.9,509.1,847.7,502.9,855.5,498.2z"/>
			<path id="path34_1_" class="st1" d="M804.2,439.2L791,412.8c6.2-7,20.2-17.9,20.2-17.9l12.4,28
				C822.8,422.9,812.7,429.9,804.2,439.2z"/>
			<path id="path36_1_" class="st1" d="M770,372.4L732,298.6h37.3l22.5,52.8v0.8C792.6,353,780.9,360.7,770,372.4z"/>
			<path id="path38_1_" class="st1" d="M881.1,588.3L854.7,537c0,0,5.4-5.4,13.2-10.1l21,48.2C888.1,575.1,884.2,581.3,881.1,588.3z
				"/>
			<path id="path40_1_" class="st1" d="M891.2,609.3l23.3,45h7.8l-24.1-56.7C898.2,597.6,894.3,601.5,891.2,609.3z"/>
		</g>
		<path id="path42_1_" class="st1" d="M943.2,568.1C942.4,568.9,943.2,568.1,943.2,568.1c-6.2,4.7-14.8,8.5-26.4,11.6l-1.6,0.8
			c0,0-3.9,1.6-14,14c0.8,0,0.8,0,0.8,0c26.4-1.6,48.1-7,56.7-14c0.8-0.8,0.8,0,0.8-0.8C957.2,572.8,952.5,568.1,943.2,568.1
			L943.2,568.1z"/>
		<path id="path44_1_" class="st1" d="M958.7,444.6c-10.1,13.2-47.4,22.5-91.6,24.1c-8.5,0-13.2,0-21,0h-0.8l-5.4-13.2
			c0,0,3.9-2.3,7.8-4.7c5.4,0,8.5,0,14,0c37.3-1.6,61.4-10.9,73-21.7C934.7,428.3,952.5,432.2,958.7,444.6z"/>
		<path id="path46_1_" class="st1" d="M798.8,444.6c-9.3-2.3-18.6-4.7-24.9-7.8l-1.6-0.8c0,0-5.4,8.5-6.2,17.1l1.6,0.8
			c5.4,3.1,10.1,4.7,17.9,7C789.4,455.5,794.9,448.5,798.8,444.6z"/>
		<path id="path48_1_" class="st1" d="M879.5,592.2l-5.4-10.1c-0.8,0-0.8,0-1.6,0c-17.9-1.6-33.4-4.7-42.7-9.3c-0.8-0.8,0,0-0.8-0.8
			c-3.1,7.8-1.6,10.9-1.6,11.6c0,0-0.8,0,0.8,0C839.1,589.1,857.8,593,879.5,592.2L879.5,592.2L879.5,592.2z"/>
		<path id="path50_1_" class="st1" d="M870.2,525.4l4.7,10.9c2.3,0,4.7,0,7,0c38.8,0,69.1-7.8,77.7-18.6
			c-7-10.9-19.4-12.4-21.7-12.4c-10.1,8.5-31.8,15.5-61.4,15.5C877.2,521.5,874.9,522.3,870.2,525.4z"/>
		<path id="path52_1_" class="st1" d="M832.2,516.8c-15.5-3.1-25.6-7-34.2-12.4c-0.8-0.8,0,0-0.8-0.8c-3.1,7.8-3.1,12.4-3.1,15.5
			c0.8,0.8,0,0,0.8,0.8c7,3.9,14,7.8,26.4,10.9C827.5,521.5,829.1,520.7,832.2,516.8z"/>
		<path id="path54_1_" class="st1" d="M791.8,513c3.1-25.6,31.8-55.9,72.2-74.6c42.7-19.4,83.1-17.9,95.5,1.6l0.8,1.6
			c3.1-8.5,3.9-17.9,2.3-24.9c-7.8-28.7-55.1-33.4-105.6-10.1s-84.7,65.2-76.9,94c1.6,7,6.2,12.4,11.6,16.3
			C791.8,516.8,791.8,513,791.8,513z"/>
		<path id="path56_1_" class="st1" d="M961.1,514.5l0.8,0.8c2.3-7.8,3.1-14.8,0.8-21c-7-23.3-46.6-25.6-87.8-5.4
			c-41.2,20.2-68.3,55.9-61.4,80c1.6,5.4,5.4,10.1,10.1,13.2v-2.3c2.3-21,24.9-48.2,58.2-64.5C916,498.2,949.4,498.2,961.1,514.5
			L961.1,514.5z"/>
		<path id="path58_1_" class="st1" d="M961.1,575.9L961.1,575.9c1.6-4.7,2.3-10.1,1.6-15.5c-3.9-18.6-24.9-21.7-48.2-6.2
			c-23.3,14.8-38.8,41.9-34.9,60.6c0.8,4.7,2.3,7.8,5.4,10.1v-1.6c1.6-16.3,14.8-36.5,32.6-48.9C937,561.9,955.6,562.7,961.1,575.9z
			"/>
		<g id="g60_1_">
			<g id="g62_1_">
				<path id="path64_1_" class="st1" d="M918.4,334.3c0,0-0.8-1.6-1.6-3.9c-0.8-1.6-1.6-2.3-1.6-2.3c-2.3-3.9-12.4-3.9-21.7-4.7
					c-4.7,0-14-3.1-17.9-3.1c-5.4,0-7.8,0-10.9,0.8c-3.1,0.8-12.4,4.7-15.5,6.2l-2.3,0.8C780.1,353,739,403.5,749.1,434.5
					c2.3,7,7.8,13.2,15.5,17.9h0.8c3.9-28,41.2-66,94-86.2l1.6-0.8c5.4-1.6,4.7,0,10.1,0c7,0,7-0.8,17.9-4.7l23.3-8.5
					c0,0,4.7-1.6,7-5.4C920.7,343.7,919.1,339,918.4,334.3z M872.5,333.6c-6.2,2.3-9.3-2.3-9.3-2.3v-0.8c4.7-3.9,10.9-3.9,12.4-4.7
					l0,0l0,0C876.4,330.5,874.9,332.8,872.5,333.6L872.5,333.6z"/>
			</g>
		</g>
		<path id="path66_1_" class="st1" d="M174.4,388.7h41.9l91.6,189.5h-38.8l-19.4-43.5H141l-20.2,43.5H82
			C82,578.2,174.4,388.7,174.4,388.7z M234.9,502.9l-39.6-84.7l-39.6,84.7C155.7,502.9,234.9,502.9,234.9,502.9z"/>
		<path id="path68_1_" class="st1" d="M357.6,434.5L357.6,434.5l-0.8,143.7h-32.6V388.7H374l59,140.6l59.8-140.6h48.2v189.5h-32.6
			V434.5h-0.8l-59.8,143.7h-29.5C418.2,578.2,357.6,434.5,357.6,434.5z"/>
		<path id="path70_1_" class="st1" d="M650.4,388.7h41.9L784,578.2h-38.8l-19.4-43.5H617l-20.2,43.5H558
			C558,578.2,650.4,388.7,650.4,388.7z M711,502.9l-39.6-84.7l-39.6,84.7H711z"/>
	</g>
</g>
</svg>
