<?xml version="1.0" standalone="no"?>
<!DOCTYPE svg PUBLIC "-//W3C//DTD SVG 20010904//EN"
 "http://www.w3.org/TR/2001/REC-SVG-20010904/DTD/svg10.dtd">
<svg version="1.0" xmlns="http://www.w3.org/2000/svg"
 width="700.000000pt" height="700.000000pt" viewBox="0 0 700.000000 700.000000"
 preserveAspectRatio="xMidYMid meet">
<metadata>
Created by potrace 1.11, written by Peter Selinger 2001-2013
</metadata>
<g transform="translate(0.000000,700.000000) scale(0.100000,-0.100000)"
fill="#000000" stroke="none">
<path d="M3185 5735 c-201 -37 -323 -109 -546 -326 -103 -100 -473 -457 -568
-549 -32 -30 -170 -164 -307 -296 -137 -133 -277 -268 -310 -300 -34 -33 -160
-153 -279 -269 -119 -115 -249 -241 -288 -279 -40 -38 -164 -158 -277 -267
-113 -109 -243 -235 -290 -280 -118 -113 -290 -282 -290 -284 0 -1 846 -2
1879 -2 l1879 0 -3 21 c-2 12 -9 62 -15 111 -7 50 -14 97 -16 105 -1 8 -3 23
-3 33 -1 16 -79 17 -1501 17 -825 0 -1500 3 -1500 6 0 3 28 33 62 66 35 33
164 158 288 278 124 120 257 248 295 285 39 37 131 126 206 199 74 72 245 237
379 366 134 129 269 260 300 290 31 30 157 152 279 270 476 460 468 453 592
497 171 61 375 29 524 -83 135 -100 208 -247 229 -464 3 -30 8 -66 10 -80 6
-35 25 -165 32 -225 3 -27 7 -61 9 -75 5 -31 14 -89 20 -137 3 -21 7 -54 10
-73 2 -19 7 -57 10 -84 3 -27 8 -52 9 -55 2 -3 7 -33 10 -66 3 -33 8 -71 11
-85 2 -14 6 -43 9 -65 6 -49 36 -271 41 -305 3 -14 7 -47 10 -75 3 -27 8 -57
10 -65 2 -8 7 -40 10 -70 3 -30 8 -66 10 -80 2 -14 6 -43 9 -65 3 -22 12 -89
21 -148 9 -60 18 -130 21 -155 3 -26 7 -58 9 -72 2 -14 9 -61 15 -105 6 -44
12 -91 14 -105 5 -33 15 -105 21 -155 3 -22 10 -74 16 -115 6 -41 12 -84 14
-95 3 -30 16 -127 20 -155 2 -14 6 -45 10 -70 3 -25 10 -79 16 -120 6 -41 12
-84 14 -95 26 -202 76 -312 186 -408 107 -94 229 -137 374 -133 105 4 197 33
279 90 43 30 475 462 1290 1291 103 105 244 247 314 318 l127 127 -1037 0
-1036 0 8 -37 c8 -37 15 -85 27 -173 10 -85 -57 -77 673 -76 359 1 654 -3 657
-7 3 -5 -17 -30 -43 -56 -27 -27 -292 -295 -589 -596 -323 -327 -556 -555
-580 -568 -53 -28 -164 -30 -215 -3 -72 38 -122 103 -134 176 -13 74 -16 97
-22 140 -3 25 -7 56 -9 69 -6 37 -15 101 -20 155 -3 27 -7 51 -9 55 -2 3 -7
33 -10 66 -3 33 -8 69 -10 80 -2 11 -9 63 -16 115 -11 91 -13 109 -24 175 -2
17 -7 53 -11 80 -3 28 -8 61 -10 75 -3 21 -13 94 -41 300 -9 68 -16 115 -20
141 -4 30 -12 87 -19 144 -6 49 -12 87 -25 185 -6 41 -13 93 -15 115 -3 22 -7
51 -10 65 -3 14 -7 45 -10 70 -6 54 -35 262 -39 287 -2 10 -7 44 -11 77 -3 32
-8 68 -10 80 -6 30 -27 187 -29 211 -2 11 -5 38 -9 60 -3 22 -9 63 -12 90 -9
76 -24 179 -30 216 -2 9 -6 40 -10 70 -17 142 -37 213 -91 325 -114 235 -343
408 -609 459 -62 12 -233 12 -300 0z"/>
</g>
</svg>
